# xmcd CD database file
#
# Track frame offsets:
#	225
#	31090
#	61633
#	84646
#	126514
#	162053
#	221867
#	253861
#	283480
#
# Disc length: 4129 seconds
#
# Revision: 1
# Processed by: cddbd v1.5PL3 Copyright (c) Steve Scherf et al.
# Submitted via: CDex 1.51
#
DISCID=85101e09
DTITLE=Spring Rolls Quartett - Prague Jazz
DYEAR=1998
DGENRE=Jazz
TTITLE0=Groovy Blues
TTITLE1=Till There Was You
TTITLE2=Crazeology
TTITLE3=Spring Rolls
TTITLE4=Wild Eggs
TTITLE5=Stella By Starlight
TTITLE6=Love Is Here To Stay
TTITLE7=Jsem Tvuj - I'm Yours
TTITLE8=Chocolate Sun
EXTD=YEAR: 1998
EXTT0=
EXTT1=
EXTT2=
EXTT3=
EXTT4=
EXTT5=
EXTT6=
EXTT7=
EXTT8=
PLAYORDER=
